<svg preserveAspectRatio="none" width="100%" height="100%" overflow="visible" style="display: block;" viewBox="0 0 14.9202 12.844" fill="none" xmlns="http://www.w3.org/2000/svg">
<path id="Vector" d="M11.0536 0.0211267C11.7282 0.026726 12.3873 0.224453 12.9536 0.591134C13.8765 1.22611 14.532 2.17988 14.7942 3.26902C15.0563 4.35816 14.9065 5.50577 14.3736 6.49113C13.6036 7.97113 10.3736 10.7311 7.58358 12.8311C7.54509 12.8467 7.50206 12.8467 7.46358 12.8311C7.42195 12.8483 7.3752 12.8483 7.33358 12.8311C4.55358 10.7311 1.33358 7.97113 0.543579 6.49113C0.0129 5.50527 -0.135659 4.35836 0.126327 3.26983C0.388313 2.1813 1.04245 1.22758 1.96358 0.591134C2.52988 0.224453 3.18895 0.026726 3.86358 0.0211267C4.41217 -0.0289664 4.96507 0.0417659 5.48338 0.228356C6.00168 0.414947 6.4728 0.712863 6.86358 1.10113L7.46358 1.91113L8.05358 1.10113C8.43889 0.705262 8.90926 0.402291 9.42904 0.215173C9.94881 0.028054 10.5044 -0.0383059 11.0536 0.0211267" fill="var(--fill-0, white)"/>
</svg>
