<svg preserveAspectRatio="none" width="100%" height="100%" overflow="visible" style="display: block;" viewBox="0 0 13.2383 13.0279" fill="none" xmlns="http://www.w3.org/2000/svg">
<g id="Union">
<path d="M13.0588 0.179461V12.8484C10.9377 12.8484 8.99271 12.0938 7.47776 10.8386C5.96695 11.8454 3.546 12.8054 0.618382 12.2732C1.42543 11.927 4.53331 9.85404 4.41819 5.70876C4.43312 5.72929 4.44975 5.74878 4.46604 5.76833C4.36121 5.22678 4.30491 4.66765 4.30491 4.09548V0.179461H13.0588Z" fill="var(--fill-0, white)"/>
<path d="M13.0588 0.179461H13.2383V0H13.0588V0.179461ZM13.0588 12.8484V13.0279H13.2383V12.8484H13.0588ZM7.47776 10.8386L7.59225 10.7004L7.48939 10.6152L7.37824 10.6893L7.47776 10.8386ZM0.618382 12.2732L0.547632 12.1083L0 12.3432L0.586286 12.4498L0.618382 12.2732ZM4.41819 5.70876L4.56332 5.6032L4.22272 5.13487L4.23879 5.71374L4.41819 5.70876ZM4.46604 5.76833L4.32817 5.88321L4.64223 5.73422L4.46604 5.76833ZM4.30491 4.09548H4.12544V4.09548L4.30491 4.09548ZM4.30491 0.179461V0H4.12544V0.179461H4.30491ZM13.0588 0.179461H12.8794V12.8484H13.0588H13.2383V0.179461H13.0588ZM13.0588 12.8484V12.6689C10.9811 12.6689 9.07621 11.9299 7.59225 10.7004L7.47776 10.8386L7.36326 10.9768C8.90921 12.2577 10.8944 13.0279 13.0588 13.0279V12.8484ZM7.47776 10.8386L7.37824 10.6893C5.89508 11.6777 3.52078 12.6184 0.650477 12.0966L0.618382 12.2732L0.586286 12.4498C3.57122 12.9924 6.03882 12.0132 7.57728 10.988L7.47776 10.8386ZM0.618382 12.2732L0.689131 12.4381C1.12011 12.2533 2.12258 11.6302 3.00425 10.5277C3.88944 9.42088 4.65651 7.82593 4.59758 5.70378L4.41819 5.70876L4.23879 5.71374C4.29498 7.73687 3.56568 9.25104 2.72394 10.3036C1.8787 11.3605 0.9237 11.947 0.547632 12.1083L0.618382 12.2732ZM4.41819 5.70876L4.27305 5.81431C4.29239 5.8409 4.31397 5.86617 4.32817 5.88321L4.46604 5.76833L4.60391 5.65345C4.58554 5.6314 4.57386 5.61769 4.56332 5.6032L4.41819 5.70876ZM4.46604 5.76833L4.64223 5.73422C4.53951 5.20356 4.48437 4.65584 4.48437 4.09547L4.30491 4.09548L4.12544 4.09548C4.12545 4.67946 4.18292 5.25001 4.28985 5.80243L4.46604 5.76833ZM4.30491 4.09548H4.48437V0.179461H4.30491H4.12544V4.09548H4.30491ZM4.30491 0.179461V0.358922H13.0588V0.179461V0H4.30491V0.179461Z" fill="var(--stroke-0, white)"/>
</g>
</svg>
