<svg preserveAspectRatio="none" width="100%" height="100%" overflow="visible" style="display: block;" viewBox="0 0 63.77 44.41" fill="none" xmlns="http://www.w3.org/2000/svg">
<path id="Vector" fill-rule="evenodd" clip-rule="evenodd" d="M55.68 0H8.09C5.9444 0 3.88668 0.852337 2.36951 2.36951C0.852337 3.88668 0 5.94441 0 8.09001V28.32C0 32.79 3.62 36.41 7.58 36.41H20.23C25.31 36.41 28.67 44.41 31.63 44.41C34.59 44.41 38.5 36.41 43.06 36.41H55.68C57.8256 36.41 59.8833 35.5577 61.4005 34.0405C62.9177 32.5233 63.77 30.4656 63.77 28.32V8.09001C63.77 5.94441 62.9177 3.88668 61.4005 2.36951C59.8833 0.852337 57.8256 0 55.68 0Z" fill="var(--fill-0, #F05161)"/>
</svg>
