<svg preserveAspectRatio="none" width="100%" height="100%" overflow="visible" style="display: block;" viewBox="0 0 64 44.6286" fill="none" xmlns="http://www.w3.org/2000/svg">
<path id="Vector" fill-rule="evenodd" clip-rule="evenodd" d="M55.8808 0H8.11917C5.96583 0 3.90069 0.856533 2.37805 2.38117C0.855412 3.90581 0 5.97367 0 8.12983V28.4594C0 32.9514 3.63306 36.5892 7.60734 36.5892H20.303C25.4013 36.5892 28.7734 44.6286 31.7441 44.6286C34.7148 44.6286 38.6389 36.5892 43.2153 36.5892H55.8808C58.0342 36.5892 60.0993 35.7327 61.6219 34.208C63.1446 32.6834 64 30.6156 64 28.4594V8.12983C64 5.97367 63.1446 3.90581 61.6219 2.38117C60.0993 0.856533 58.0342 0 55.8808 0Z" fill="var(--fill-0, #F05161)"/>
</svg>
