<svg preserveAspectRatio="none" width="100%" height="100%" overflow="visible" style="display: block;" viewBox="0 0 7.88835 7.89866" fill="none" xmlns="http://www.w3.org/2000/svg">
<path id="Vector" d="M3.93414 0C3.15448 0.00198646 2.3929 0.235294 1.74561 0.670459C1.09831 1.10562 0.594352 1.72312 0.297365 2.44494C0.000378089 3.16676 -0.076304 3.96052 0.0770143 4.72595C0.230333 5.49139 0.606767 6.19415 1.15877 6.74547C1.71077 7.29679 2.41357 7.67193 3.17838 7.82351C3.9432 7.97508 4.73574 7.8963 5.45586 7.59709C6.17597 7.29788 6.79138 6.79167 7.22433 6.14242C7.65728 5.49317 7.88835 4.73001 7.88835 3.94934C7.88569 2.90098 7.46791 1.89647 6.72664 1.15611C5.98537 0.415756 4.98112 -3.37664e-06 3.93414 0V0Z" fill="var(--fill-0, white)"/>
</svg>
