<svg preserveAspectRatio="none" width="100%" height="100%" overflow="visible" style="display: block;" viewBox="0 0 16.7136 16.7136" fill="none" xmlns="http://www.w3.org/2000/svg">
<g id="Heart-red">
<path id="Vector" d="M15.6435 8.39866C15.5068 8.82436 15.3064 9.22687 15.0491 9.59245C14.788 9.97028 14.4738 10.3084 14.1161 10.5962L8.83241 14.8716C8.69821 14.9841 8.52863 15.0455 8.35357 15.0451C8.18103 15.0424 8.01416 14.9829 7.87885 14.8757L2.59512 10.6004C1.88013 10.0316 1.34882 9.26422 1.06778 8.39453C0.787347 7.50879 0.761343 6.562 0.992713 5.66218C1.22408 4.76235 1.70352 3.94571 2.37634 3.30542C2.9978 2.71773 3.77622 2.323 4.61732 2.16903C5.45841 2.01507 6.32608 2.10848 7.1152 2.43795C7.59279 2.64457 8.0165 2.95834 8.35357 3.35499C8.68951 2.95713 9.11353 2.64314 9.59195 2.43795C10.3832 2.10499 11.2542 2.00971 12.0986 2.16375C12.943 2.31779 13.7244 2.71448 14.3473 3.30542C15.0187 3.94744 15.4963 4.7654 15.7255 5.66598C15.9547 6.56656 15.9263 7.51347 15.6435 8.39866Z" fill="var(--fill-0, #F05161)"/>
</g>
</svg>
