<svg preserveAspectRatio="none" width="100%" height="100%" overflow="visible" style="display: block;" viewBox="0 0 4.86543 4.86543" fill="none" xmlns="http://www.w3.org/2000/svg">
<g id="Heart-red" clip-path="url(#clip0_561_1100)">
<path id="Vector" d="M4.55408 2.44485C4.51428 2.56878 4.45594 2.68595 4.38104 2.79237C4.30505 2.90236 4.21358 3.00078 4.10946 3.08458L2.57134 4.32916C2.53227 4.3619 2.4829 4.37978 2.43194 4.37966C2.38171 4.37889 2.33314 4.36156 2.29375 4.33036L0.755625 3.08578C0.547489 2.9202 0.392821 2.69682 0.311009 2.44365C0.229374 2.18581 0.221804 1.91019 0.289157 1.64825C0.35651 1.3863 0.496076 1.14857 0.691938 0.962181C0.872848 0.791103 1.09945 0.676193 1.3443 0.631373C1.58915 0.586553 1.84173 0.613746 2.07145 0.709657C2.21048 0.769805 2.33382 0.861144 2.43194 0.97661C2.52974 0.860791 2.65317 0.769387 2.79244 0.709657C3.02277 0.612728 3.27632 0.584993 3.52214 0.629834C3.76796 0.674676 3.99542 0.790156 4.17675 0.962181C4.37221 1.14908 4.51123 1.38719 4.57795 1.64935C4.64467 1.91152 4.6364 2.18717 4.55408 2.44485Z" fill="var(--fill-0, #F05161)"/>
</g>
<defs>
<clipPath id="clip0_561_1100">
<rect width="4.86543" height="4.86543" fill="white"/>
</clipPath>
</defs>
</svg>
