<svg preserveAspectRatio="none" width="100%" height="100%" overflow="visible" style="display: block;" viewBox="0 0 7.39408 7.39408" fill="none" xmlns="http://www.w3.org/2000/svg">
<g id="Heart-red" clip-path="url(#clip0_561_1078)">
<path id="Vector" d="M6.91959 3.7121C6.85911 3.90043 6.77044 4.0785 6.65662 4.24023C6.54114 4.40738 6.40213 4.55695 6.2439 4.6843L3.90638 6.57571C3.84701 6.62547 3.77199 6.65265 3.69455 6.65246C3.61821 6.65129 3.54439 6.62495 3.48453 6.57754L1.14701 4.68613C0.830707 4.43449 0.595655 4.09502 0.471324 3.71027C0.347261 3.31842 0.335757 2.89957 0.438114 2.50148C0.540472 2.1034 0.752573 1.74212 1.05023 1.45886C1.32516 1.19887 1.66953 1.02424 2.04163 0.956123C2.41373 0.88801 2.79759 0.929335 3.14669 1.07509C3.35798 1.1665 3.54543 1.30531 3.69455 1.48079C3.84316 1.30477 4.03075 1.16587 4.2424 1.07509C4.59244 0.927789 4.97776 0.885638 5.35134 0.953785C5.72491 1.02193 6.07058 1.19743 6.34616 1.45886C6.64321 1.74289 6.85448 2.10475 6.95587 2.50317C7.05726 2.90158 7.04469 3.32049 6.91959 3.7121Z" fill="var(--fill-0, #F05161)"/>
</g>
<defs>
<clipPath id="clip0_561_1078">
<rect width="7.39408" height="7.39408" fill="white"/>
</clipPath>
</defs>
</svg>
