<svg preserveAspectRatio="none" width="100%" height="100%" overflow="visible" style="display: block;" viewBox="0 0 21.9964 21.9964" fill="none" xmlns="http://www.w3.org/2000/svg">
<g id="Heart-red">
<path id="Vector" d="M20.5872 11.0492C20.4073 11.6095 20.1435 12.1392 19.8049 12.6204C19.4614 13.1176 19.0479 13.5625 18.5771 13.9414L11.6233 19.5681C11.4467 19.7161 11.2235 19.797 10.9931 19.7964C10.7661 19.7929 10.5465 19.7146 10.3684 19.5735L3.41457 13.9468C2.47359 13.1982 1.77435 12.1884 1.40448 11.0438C1.03541 9.87809 1.00118 8.63205 1.30568 7.44781C1.61018 6.26357 2.24116 5.18881 3.12664 4.34613C3.94453 3.57269 4.969 3.05319 6.07594 2.85056C7.18288 2.64793 8.3248 2.77087 9.36334 3.20448C9.99189 3.47641 10.5495 3.88935 10.9931 4.41137C11.4353 3.88775 11.9933 3.47452 12.6229 3.20448C13.6643 2.76627 14.8105 2.64088 15.9219 2.8436C17.0332 3.04633 18.0615 3.56841 18.8814 4.34613C19.765 5.19108 20.3935 6.26758 20.6952 7.45281C20.9968 8.63804 20.9594 9.88425 20.5872 11.0492Z" fill="var(--fill-0, #F05161)"/>
</g>
</svg>
