<svg preserveAspectRatio="none" width="100%" height="100%" overflow="visible" style="display: block;" viewBox="0 0 12.8612 12.8612" fill="none" xmlns="http://www.w3.org/2000/svg">
<g id="Heart-red" clip-path="url(#clip0_561_1092)">
<path id="Vector" d="M12.0375 6.4604C11.9323 6.78798 11.7781 7.09771 11.5801 7.37903C11.3792 7.66977 11.1374 7.92992 10.8622 8.15144L6.79635 11.4413C6.69307 11.5279 6.56258 11.5752 6.42788 11.5748C6.2951 11.5728 6.1667 11.527 6.06258 11.4445L1.99673 8.15462C1.44655 7.71692 1.0377 7.12645 0.821445 6.45723C0.60565 5.77565 0.58564 5.04709 0.76368 4.35467C0.941719 3.66226 1.31065 3.03385 1.82838 2.54114C2.3066 2.08892 2.9056 1.78517 3.55282 1.66669C4.20004 1.54821 4.86772 1.6201 5.47494 1.87363C5.84245 2.03262 6.1685 2.27406 6.42788 2.57928C6.68638 2.27313 7.01267 2.03151 7.38081 1.87363C7.98967 1.61741 8.65989 1.54409 9.30968 1.66262C9.95948 1.78116 10.5607 2.08642 11.0401 2.54114C11.5567 3.03518 11.9242 3.6646 12.1006 4.3576C12.2769 5.0506 12.2551 5.77925 12.0375 6.4604Z" fill="var(--fill-0, #F05161)"/>
</g>
<defs>
<clipPath id="clip0_561_1092">
<rect width="12.8612" height="12.8612" fill="white"/>
</clipPath>
</defs>
</svg>
