<svg preserveAspectRatio="none" width="100%" height="100%" overflow="visible" style="display: block;" viewBox="0 0 14.4 14.4" fill="none" xmlns="http://www.w3.org/2000/svg">
<path id="Vector" d="M13.4411 10.79C14.2312 9.41651 14.5461 7.82074 14.3371 6.25007C14.128 4.6794 13.4067 3.22155 12.2848 2.10251C11.163 0.983482 9.7034 0.265768 8.13222 0.0606143C6.56103 -0.144539 4.96605 0.174326 3.59451 0.967795C2.22297 1.76126 1.15149 2.98502 0.546142 4.44935C-0.0592027 5.91368 -0.164594 7.53681 0.246306 9.06713C0.657207 10.5974 1.56145 11.9495 2.81886 12.9136C4.07627 13.8778 5.61662 14.4003 7.20114 14.4C8.48215 14.3988 9.73929 14.0534 10.8411 13.4L13.9911 14.12L13.4411 10.79Z" fill="var(--fill-0, white)"/>
</svg>
