<svg preserveAspectRatio="none" width="100%" height="100%" overflow="visible" style="display: block;" viewBox="0 0 43 29.9523" fill="none" xmlns="http://www.w3.org/2000/svg">
<g id="Like notification container">
<path id="Vector" fill-rule="evenodd" clip-rule="evenodd" d="M37.5449 0H5.45507C4.0083 0 2.62078 0.57473 1.59775 1.59775C0.57473 2.62078 0 4.00832 0 5.45509V19.0961C0 22.1102 2.44096 24.558 5.11118 24.558H13.6411C17.0665 24.558 19.3321 29.9523 21.3281 29.9523C23.324 29.9523 25.9605 24.558 29.0353 24.558H37.5449C38.9923 24.5562 40.3798 23.9799 41.4027 22.9558C42.4255 21.9317 43 20.5435 43 19.0961V5.45509C42.9982 4.00886 42.4229 2.62237 41.4003 1.59973C40.3776 0.577092 38.9912 0.00178437 37.5449 0V0Z" fill="var(--fill-0, #F05161)"/>
<path id="Vector_2" d="M25.2592 5.52074C25.9757 5.51935 26.6776 5.72289 27.2821 6.10738C28.2457 6.77587 28.9299 7.7752 29.2047 8.91528C29.4794 10.0554 29.3256 11.2567 28.7723 12.2907C27.9564 13.8416 24.5647 16.7411 21.6585 18.9325C21.6208 18.9642 21.5728 18.9809 21.5236 18.9798C21.4746 18.9798 21.4271 18.9631 21.3888 18.9325C18.4893 16.7411 15.0908 13.8416 14.2817 12.2907C13.7269 11.257 13.5722 10.0552 13.8471 8.91475C14.122 7.77426 14.8071 6.77489 15.7719 6.10738C16.3754 5.7208 17.078 5.51707 17.7948 5.52074C18.368 5.46741 18.9459 5.54062 19.4877 5.73521C20.0295 5.92979 20.5219 6.241 20.9302 6.64683L21.5573 7.50318L22.1844 6.64683C22.5873 6.23349 23.0791 5.91728 23.6223 5.72218C24.1656 5.52708 24.7461 5.45818 25.3199 5.52074" fill="var(--fill-0, white)"/>
</g>
</svg>
