<svg preserveAspectRatio="none" width="100%" height="100%" overflow="visible" style="display: block;" viewBox="0 0 43 29.9523" fill="none" xmlns="http://www.w3.org/2000/svg">
<g id="Like notification background">
<path id="Vector" fill-rule="evenodd" clip-rule="evenodd" d="M37.5449 0L5.45507 0C4.0083 0 2.62078 0.57473 1.59775 1.59775C0.57473 2.62078 0 4.00832 0 5.45509L0 19.0961C0 22.1102 2.44096 24.558 5.11118 24.558H13.6411C17.0665 24.558 19.3321 29.9523 21.3281 29.9523C23.324 29.9523 25.9605 24.558 29.0353 24.558H37.5449C38.9923 24.5562 40.3798 23.9799 41.4027 22.9558C42.4255 21.9317 43 20.5435 43 19.0961V5.45509C42.9982 4.00886 42.4229 2.62237 41.4003 1.59973C40.3776 0.577092 38.9912 0.00178437 37.5449 0V0Z" fill="var(--fill-0, #F05161)"/>
<path id="Vector_2" d="M25.2591 5.52095C25.9756 5.51955 26.6775 5.7231 27.282 6.10758C28.2456 6.77607 28.9298 7.7754 29.2045 8.91548C29.4793 10.0556 29.3254 11.2569 28.7722 12.2909C27.9563 13.8418 24.5646 16.7413 21.6584 18.9327C21.6207 18.9644 21.5727 18.9811 21.5235 18.98C21.4745 18.98 21.4269 18.9633 21.3886 18.9327C18.4892 16.7413 15.0907 13.8418 14.2815 12.2909C13.7268 11.2572 13.5721 10.0554 13.847 8.91495C14.1218 7.77446 14.807 6.77509 15.7717 6.10758C16.3753 5.721 17.0779 5.51727 17.7946 5.52095C18.3678 5.46761 18.9458 5.54083 19.4876 5.73541C20.0294 5.92999 20.5218 6.2412 20.9301 6.64703L21.5572 7.50338L22.1843 6.64703C22.5872 6.23369 23.0789 5.91749 23.6222 5.72238C24.1654 5.52728 24.746 5.45839 25.3198 5.52095" fill="var(--fill-0, white)"/>
</g>
</svg>
