<svg preserveAspectRatio="none" width="100%" height="100%" overflow="visible" style="display: block;" viewBox="0 0 63.77 44.41" fill="none" xmlns="http://www.w3.org/2000/svg">
<path id="Vector" fill-rule="evenodd" clip-rule="evenodd" d="M55.67 0H8.09C5.94439 0 3.88668 0.852337 2.36951 2.36951C0.852337 3.88668 0 5.94441 0 8.09001V28.32C0 32.79 3.62 36.41 7.58 36.41H20.23C25.31 36.41 28.67 44.41 31.63 44.41C34.59 44.41 38.5 36.41 43.06 36.41H55.67C57.8165 36.41 59.8753 35.558 61.394 34.0411C62.9128 32.5242 63.7674 30.4665 63.77 28.32V8.09001C63.7674 5.94349 62.9128 3.88579 61.394 2.36891C59.8753 0.852029 57.8165 -1.63582e-06 55.67 0V0Z" fill="var(--fill-0, #F05161)"/>
</svg>
