<svg preserveAspectRatio="none" width="100%" height="100%" overflow="visible" style="display: block;" viewBox="0 0 24 24" fill="none" xmlns="http://www.w3.org/2000/svg">
<g id="bookmark_bag">
<mask id="mask0_163_44" style="mask-type:alpha" maskUnits="userSpaceOnUse" x="0" y="0" width="24" height="24">
<rect id="Bounding box" width="24" height="24" fill="var(--fill-0, #D9D9D9)"/>
</mask>
<g mask="url(#mask0_163_44)">
<path id="bookmark_bag_2" d="M10.75 15C10.9667 15 11.1458 14.9292 11.2875 14.7875C11.4292 14.6458 11.5 14.4667 11.5 14.25V14H12.5V14.25C12.5 14.4667 12.5708 14.6458 12.7125 14.7875C12.8542 14.9292 13.0333 15 13.25 15C13.4667 15 13.6458 14.9292 13.7875 14.7875C13.9292 14.6458 14 14.4667 14 14.25V14C14.2833 14 14.5208 13.9042 14.7125 13.7125C14.9042 13.5208 15 13.2833 15 13V9C15 8.71667 14.9042 8.47917 14.7125 8.2875C14.5208 8.09583 14.2833 8 14 8H13.5V7C13.5 6.71667 13.4042 6.47917 13.2125 6.2875C13.0208 6.09583 12.7833 6 12.5 6H11.5C11.2167 6 10.9792 6.09583 10.7875 6.2875C10.5958 6.47917 10.5 6.71667 10.5 7V8H10C9.71667 8 9.47917 8.09583 9.2875 8.2875C9.09583 8.47917 9 8.71667 9 9V13C9 13.2833 9.09583 13.5208 9.2875 13.7125C9.47917 13.9042 9.71667 14 10 14V14.25C10 14.4667 10.0708 14.6458 10.2125 14.7875C10.3542 14.9292 10.5333 15 10.75 15ZM11.5 8V7H12.5V8H11.5ZM5 21V5C5 4.45 5.19583 3.97917 5.5875 3.5875C5.97917 3.19583 6.45 3 7 3H17C17.55 3 18.0208 3.19583 18.4125 3.5875C18.8042 3.97917 19 4.45 19 5V21L12 18L5 21ZM7 17.95L12 15.8L17 17.95V5H7V17.95Z" fill="var(--fill-0, #475F73)"/>
</g>
</g>
</svg>
