<svg preserveAspectRatio="none" width="100%" height="100%" overflow="visible" style="display: block;" viewBox="0 0 20 20" fill="none" xmlns="http://www.w3.org/2000/svg">
<g id="help">
<mask id="mask0_145_57" style="mask-type:alpha" maskUnits="userSpaceOnUse" x="0" y="0" width="20" height="20">
<rect id="Bounding box" width="20" height="20" fill="var(--fill-0, #D9D9D9)"/>
</mask>
<g mask="url(#mask0_145_57)">
<path id="help_2" d="M9.95833 15C10.25 15 10.4965 14.8993 10.6979 14.6979C10.8993 14.4965 11 14.25 11 13.9583C11 13.6667 10.8993 13.4201 10.6979 13.2187C10.4965 13.0174 10.25 12.9167 9.95833 12.9167C9.66667 12.9167 9.42014 13.0174 9.21875 13.2187C9.01736 13.4201 8.91667 13.6667 8.91667 13.9583C8.91667 14.25 9.01736 14.4965 9.21875 14.6979C9.42014 14.8993 9.66667 15 9.95833 15ZM9.20833 11.7917H10.75C10.75 11.3333 10.8021 10.9722 10.9063 10.7083C11.0104 10.4444 11.3056 10.0833 11.7917 9.625C12.1528 9.26389 12.4375 8.92014 12.6458 8.59375C12.8542 8.26736 12.9583 7.875 12.9583 7.41667C12.9583 6.63889 12.6736 6.04167 12.1042 5.625C11.5347 5.20833 10.8611 5 10.0833 5C9.29167 5 8.64931 5.20833 8.15625 5.625C7.66319 6.04167 7.31944 6.54167 7.125 7.125L8.5 7.66667C8.56944 7.41667 8.72569 7.14583 8.96875 6.85417C9.21181 6.5625 9.58333 6.41667 10.0833 6.41667C10.5278 6.41667 10.8611 6.53819 11.0833 6.78125C11.3056 7.02431 11.4167 7.29167 11.4167 7.58333C11.4167 7.86111 11.3333 8.12153 11.1667 8.36458C11 8.60764 10.7917 8.83333 10.5417 9.04167C9.93056 9.58333 9.55556 9.99306 9.41667 10.2708C9.27778 10.5486 9.20833 11.0556 9.20833 11.7917ZM10 18.3333C8.84722 18.3333 7.76389 18.1146 6.75 17.6771C5.73611 17.2396 4.85417 16.6458 4.10417 15.8958C3.35417 15.1458 2.76042 14.2639 2.32292 13.25C1.88542 12.2361 1.66667 11.1528 1.66667 10C1.66667 8.84722 1.88542 7.76389 2.32292 6.75C2.76042 5.73611 3.35417 4.85417 4.10417 4.10417C4.85417 3.35417 5.73611 2.76042 6.75 2.32292C7.76389 1.88542 8.84722 1.66667 10 1.66667C11.1528 1.66667 12.2361 1.88542 13.25 2.32292C14.2639 2.76042 15.1458 3.35417 15.8958 4.10417C16.6458 4.85417 17.2396 5.73611 17.6771 6.75C18.1146 7.76389 18.3333 8.84722 18.3333 10C18.3333 11.1528 18.1146 12.2361 17.6771 13.25C17.2396 14.2639 16.6458 15.1458 15.8958 15.8958C15.1458 16.6458 14.2639 17.2396 13.25 17.6771C12.2361 18.1146 11.1528 18.3333 10 18.3333ZM10 16.6667C11.8611 16.6667 13.4375 16.0208 14.7292 14.7292C16.0208 13.4375 16.6667 11.8611 16.6667 10C16.6667 8.13889 16.0208 6.5625 14.7292 5.27083C13.4375 3.97917 11.8611 3.33333 10 3.33333C8.13889 3.33333 6.5625 3.97917 5.27083 5.27083C3.97917 6.5625 3.33333 8.13889 3.33333 10C3.33333 11.8611 3.97917 13.4375 5.27083 14.7292C6.5625 16.0208 8.13889 16.6667 10 16.6667Z" fill="var(--fill-0, #1C1B1F)"/>
</g>
</g>
</svg>
