<svg width="799" height="653" viewBox="0 0 799 653" fill="none" xmlns="http://www.w3.org/2000/svg">
<path d="M31 0V648.5" stroke="#A1A1A1"/>
<path d="M98 0V648.5" stroke="#A1A1A1"/>
<path d="M165 0V648.5" stroke="#A1A1A1"/>
<path d="M232 0V648.5" stroke="#A1A1A1"/>
<path d="M299 0V648.5" stroke="#A1A1A1"/>
<path d="M366 0V648.5" stroke="#A1A1A1"/>
<path d="M433 0V648.5" stroke="#A1A1A1"/>
<path d="M500 0V648.5" stroke="#A1A1A1"/>
<path d="M567 0V648.5" stroke="#A1A1A1"/>
<path d="M634 0V648.5" stroke="#A1A1A1"/>
<path d="M701 0V648.5" stroke="#A1A1A1"/>
<path d="M768 0V648.5" stroke="#A1A1A1"/>
<path d="M0 62.5H799" stroke="#A1A1A1"/>
<path d="M0 121.5H799" stroke="#A1A1A1"/>
<path d="M0 180.5H799" stroke="#A1A1A1"/>
<path d="M0 239.5H799" stroke="#A1A1A1"/>
<path d="M0 298.5H799" stroke="#A1A1A1"/>
<path d="M0 357.5H799" stroke="#A1A1A1"/>
<path d="M0 416.5H799" stroke="#A1A1A1"/>
<path d="M0 475.5H799" stroke="#A1A1A1"/>
<path d="M0 534.5H799" stroke="#A1A1A1"/>
<path d="M0 593.5H799" stroke="#A1A1A1"/>
<path d="M0 652.5H799" stroke="#A1A1A1"/>
</svg>
