<svg preserveAspectRatio="none" width="100%" height="100%" overflow="visible" style="display: block;" viewBox="0 0 20 20" fill="none" xmlns="http://www.w3.org/2000/svg">
<g id="travel_explore">
<mask id="mask0_145_17" style="mask-type:alpha" maskUnits="userSpaceOnUse" x="0" y="0" width="20" height="20">
<rect id="Bounding box" width="20" height="20" fill="var(--fill-0, #D9D9D9)"/>
</mask>
<g mask="url(#mask0_145_17)">
<path id="travel_explore_2" d="M10 18.3333C8.84722 18.3333 7.76389 18.1146 6.75 17.6771C5.73611 17.2396 4.85417 16.6458 4.10417 15.8958C3.35417 15.1458 2.76042 14.2639 2.32292 13.25C1.88542 12.2361 1.66667 11.1528 1.66667 10C1.66667 8.84722 1.88542 7.76389 2.32292 6.75C2.76042 5.73611 3.35417 4.85417 4.10417 4.10417C4.85417 3.35417 5.73611 2.76042 6.75 2.32292C7.76389 1.88542 8.84722 1.66667 10 1.66667C12.0278 1.66667 13.8021 2.30208 15.3229 3.57292C16.8438 4.84375 17.7917 6.4375 18.1667 8.35417H16.4583C16.1944 7.34028 15.7188 6.43403 15.0313 5.63542C14.3438 4.83681 13.5 4.23611 12.5 3.83333V4.16667C12.5 4.625 12.3368 5.01736 12.0104 5.34375C11.684 5.67014 11.2917 5.83333 10.8333 5.83333H9.16667V7.5C9.16667 7.73611 9.08681 7.93403 8.92708 8.09375C8.76736 8.25347 8.56944 8.33333 8.33333 8.33333H6.66667V10H8.33333V12.5H7.5L3.5 8.5C3.45833 8.75 3.42014 9 3.38542 9.25C3.35069 9.5 3.33333 9.75 3.33333 10C3.33333 11.8194 3.97222 13.3819 5.25 14.6875C6.52778 15.9931 8.11111 16.6528 10 16.6667V18.3333ZM17.5833 17.9167L14.9167 15.25C14.625 15.4167 14.3125 15.5556 13.9792 15.6667C13.6458 15.7778 13.2917 15.8333 12.9167 15.8333C11.875 15.8333 10.9896 15.4687 10.2604 14.7396C9.53125 14.0104 9.16667 13.125 9.16667 12.0833C9.16667 11.0417 9.53125 10.1562 10.2604 9.42708C10.9896 8.69792 11.875 8.33333 12.9167 8.33333C13.9583 8.33333 14.8438 8.69792 15.5729 9.42708C16.3021 10.1562 16.6667 11.0417 16.6667 12.0833C16.6667 12.4583 16.6111 12.8125 16.5 13.1458C16.3889 13.4792 16.25 13.7917 16.0833 14.0833L18.75 16.75L17.5833 17.9167ZM12.9167 14.1667C13.5 14.1667 13.9931 13.9653 14.3958 13.5625C14.7986 13.1597 15 12.6667 15 12.0833C15 11.5 14.7986 11.0069 14.3958 10.6042C13.9931 10.2014 13.5 10 12.9167 10C12.3333 10 11.8403 10.2014 11.4375 10.6042C11.0347 11.0069 10.8333 11.5 10.8333 12.0833C10.8333 12.6667 11.0347 13.1597 11.4375 13.5625C11.8403 13.9653 12.3333 14.1667 12.9167 14.1667Z" fill="var(--fill-0, #475F73)"/>
</g>
</g>
</svg>
