<svg preserveAspectRatio="none" width="100%" height="100%" overflow="visible" style="display: block;" viewBox="0 0 749.483 572.312" fill="none" xmlns="http://www.w3.org/2000/svg">
<g id="Grid Lines Horizontal">
<path id="Vector 1154" d="M0.279449 0V572.312" stroke="var(--stroke-0, #A1A1A1)" stroke-width="0.558899"/>
<path id="Vector 1153" d="M37.7257 0V572.312" stroke="var(--stroke-0, #A1A1A1)" stroke-width="0.558899"/>
<path id="Vector 1152" d="M75.1719 0V572.312" stroke="var(--stroke-0, #A1A1A1)" stroke-width="0.558899"/>
<path id="Vector 1151" d="M112.618 0V572.312" stroke="var(--stroke-0, #A1A1A1)" stroke-width="0.558899"/>
<path id="Vector 1150" d="M150.064 0V572.312" stroke="var(--stroke-0, #A1A1A1)" stroke-width="0.558899"/>
<path id="Vector 1149" d="M187.511 0V572.312" stroke="var(--stroke-0, #A1A1A1)" stroke-width="0.558899"/>
<path id="Vector 1148" d="M224.957 0V572.312" stroke="var(--stroke-0, #A1A1A1)" stroke-width="0.558899"/>
<path id="Vector 1147" d="M262.403 0V572.312" stroke="var(--stroke-0, #A1A1A1)" stroke-width="0.558899"/>
<path id="Vector 1146" d="M299.849 0V572.312" stroke="var(--stroke-0, #A1A1A1)" stroke-width="0.558899"/>
<path id="Vector 1145" d="M337.295 0V572.312" stroke="var(--stroke-0, #A1A1A1)" stroke-width="0.558899"/>
<path id="Vector 1144" d="M374.742 0V572.312" stroke="var(--stroke-0, #A1A1A1)" stroke-width="0.558899"/>
<path id="Vector 1155" d="M412.188 0V572.312" stroke="var(--stroke-0, #A1A1A1)" stroke-width="0.558899"/>
<path id="Vector 1156" d="M449.634 0V572.312" stroke="var(--stroke-0, #A1A1A1)" stroke-width="0.558899"/>
<path id="Vector 1157" d="M487.08 0V572.312" stroke="var(--stroke-0, #A1A1A1)" stroke-width="0.558899"/>
<path id="Vector 1158" d="M524.527 0V572.312" stroke="var(--stroke-0, #A1A1A1)" stroke-width="0.558899"/>
<path id="Vector 1159" d="M561.973 0V572.312" stroke="var(--stroke-0, #A1A1A1)" stroke-width="0.558899"/>
<path id="Vector 1160" d="M599.419 0V572.312" stroke="var(--stroke-0, #A1A1A1)" stroke-width="0.558899"/>
<path id="Vector 1161" d="M636.865 0V572.312" stroke="var(--stroke-0, #A1A1A1)" stroke-width="0.558899"/>
<path id="Vector 1162" d="M674.311 0V572.312" stroke="var(--stroke-0, #A1A1A1)" stroke-width="0.558899"/>
<path id="Vector 1163" d="M711.758 0V572.312" stroke="var(--stroke-0, #A1A1A1)" stroke-width="0.558899"/>
<path id="Vector 1142" d="M749.204 0V572.312" stroke="var(--stroke-0, #A1A1A1)" stroke-width="0.558899"/>
</g>
</svg>
